<svg version="1.1" id="Layer_1" xmlns="http://www.w3.org/2000/svg" xmlns:xlink="http://www.w3.org/1999/xlink" x="0px" y="0px"
	 width="24px" height="24px" viewBox="0 0 1024 1024" enable-background="new 0 0 1024 1024" xml:space="preserve">
<path fill="currentColor" opacity="1.000000" stroke="none" 
	d="
M1.000000,505.468658 
	C3.830391,509.162628 2.617155,514.105652 3.044832,518.553528 
	C6.284513,552.246399 13.867014,584.908508 25.331354,616.677307 
	C34.938423,643.299438 47.394459,668.533508 62.772430,692.357300 
	C71.777786,706.308533 81.315857,719.875793 91.981422,732.538330 
	C104.598404,747.517761 118.244034,761.561340 132.720306,774.846802 
	C149.754242,790.479492 167.880707,804.629883 186.935699,817.626282 
	C205.503769,830.290588 225.229233,840.996521 245.689560,850.206482 
	C267.640930,860.087646 290.416138,867.759460 313.957916,872.985718 
	C330.258911,876.604553 346.708191,879.155762 363.351898,880.797485 
	C379.931244,882.432861 396.532166,883.322815 413.113495,882.523926 
	C443.205688,881.074097 473.222229,878.897949 502.772858,872.142761 
	C528.193909,866.331665 552.470825,857.656189 575.531372,845.633911 
	C593.527893,836.251831 610.480774,825.169250 626.339050,812.461487 
	C626.858582,812.045166 627.434937,811.666992 627.853333,811.162109 
	C634.953918,802.592896 642.438354,803.549805 651.959045,808.046021 
	C663.144470,813.328430 675.750854,815.055908 688.090088,816.564026 
	C701.552917,818.209473 715.063049,819.946106 728.594360,820.401245 
	C739.478333,820.767334 750.492615,819.825073 761.324768,818.470032 
	C772.781860,817.036804 784.302795,815.463806 795.324036,811.639038 
	C808.257324,807.150696 815.495544,793.555664 811.783997,781.088745 
	C810.536926,776.900085 807.847839,773.909485 804.232178,772.270996 
	C780.674866,761.595825 757.400696,750.194946 732.687805,742.315247 
	C726.617798,740.379700 720.878296,738.194092 715.983154,733.560364 
	C718.243958,728.800720 722.230286,725.167969 725.700562,721.343140 
	C737.849731,707.952759 749.962952,694.515320 761.293335,680.447754 
	C775.967224,662.229126 789.292297,643.050171 800.760071,622.560364 
	C814.773071,597.522888 826.052917,571.340027 834.894531,544.120728 
	C845.152100,512.542297 852.382324,480.228668 857.863037,447.468689 
	C860.045166,434.425476 860.983337,421.445435 860.625183,408.308014 
	C860.530762,404.842285 859.692688,401.384979 859.732666,397.930023 
	C859.807129,391.489838 863.164368,388.321930 869.506287,387.625153 
	C888.392395,385.550232 906.502319,380.810638 923.967468,373.071594 
	C946.083130,363.271881 965.053589,349.346191 981.161682,331.521027 
	C991.438232,320.149017 999.366455,307.172363 1005.950012,293.260315 
	C1014.128662,275.977417 1018.695435,257.713135 1022.247375,239.102325 
	C1023.113708,234.563126 1023.592834,229.950027 1024.625000,225.185455 
	C1025.000000,330.020905 1025.000000,435.041779 1024.671387,540.625977 
	C1019.626770,543.515442 1016.963623,548.361816 1012.389038,550.883667 
	C1007.472046,553.594299 1004.344849,557.783203 1002.755981,563.130737 
	C1000.431702,570.953186 997.846680,578.713196 995.898193,586.629089 
	C992.149536,601.858582 990.873352,617.511414 988.459229,632.971497 
	C985.067383,654.694031 979.504272,676.008301 975.726135,697.641724 
	C972.467712,716.298828 968.696228,734.611877 959.359436,751.335022 
	C957.822815,754.087341 957.814392,757.112122 958.202881,760.113159 
	C959.164307,767.540955 959.896912,775.011841 962.070251,782.231689 
	C962.899902,784.987854 963.225220,787.794922 962.334412,790.601990 
	C960.062927,797.759949 958.483398,805.069397 957.335938,812.485840 
	C956.951050,814.973572 955.921448,817.260193 954.630615,819.433716 
	C947.276794,831.816101 937.799316,842.626221 928.106995,853.071045 
	C919.558411,862.283325 913.156494,872.398132 908.378967,883.892395 
	C901.321411,900.872253 890.781799,914.676270 872.641479,921.253662 
	C867.739685,923.031006 863.717163,926.514954 860.433777,930.533569 
	C855.077454,937.089478 848.942139,942.494019 841.150696,946.018311 
	C835.690918,948.487976 830.038147,950.802307 825.114685,954.135864 
	C809.844421,964.474854 792.464966,969.638733 775.231262,975.115540 
	C762.643616,979.115845 749.476685,980.380371 736.420654,982.051453 
	C727.680237,983.170166 718.671082,983.457275 710.608704,987.362122 
	C705.403564,989.883179 700.044067,991.203491 694.467407,992.279480 
	C683.704529,994.356140 672.687866,994.440247 662.026184,997.758972 
	C651.503296,1001.034607 641.454590,1005.500488 630.976013,1008.783325 
	C625.411987,1010.526489 621.255554,1014.464050 616.461365,1017.382141 
	C613.929321,1018.923401 613.613953,1022.198364 613.000000,1025.000000 
	C462.312439,1025.000000 311.624878,1025.000000 160.509293,1024.757080 
	C160.398071,1022.778687 157.576263,1022.821350 158.024292,1021.457031 
	C159.467819,1017.061401 155.779068,1016.214783 153.494461,1014.306946 
	C148.522858,1010.155396 142.804169,1006.742798 138.255371,1002.328735 
	C124.014732,988.509766 105.467773,989.095703 88.009048,986.309326 
	C82.050560,985.358337 76.926987,988.347961 74.518631,995.001221 
	C72.552971,1000.431335 68.193489,1003.600281 62.073700,1003.000671 
	C51.924175,1002.006226 41.608734,1003.036133 31.785540,998.511780 
	C24.309736,995.068542 22.390799,993.608643 21.946144,985.133911 
	C21.868446,983.653076 21.660662,982.153442 21.290194,980.720093 
	C20.834103,978.955566 19.576807,977.883545 17.731251,977.690735 
	C15.781561,977.487000 15.301778,979.004578 14.662899,980.386719 
	C14.004385,981.811340 14.054811,983.779236 12.021136,984.212158 
	C9.911691,983.981567 10.167080,981.487305 8.240191,980.656982 
	C6.759534,982.065369 4.737267,981.443420 2.885135,981.032654 
	C2.168173,982.921875 1.584088,984.460938 1.000002,986.000000 
	C1.000000,825.979126 1.000000,665.958191 1.000000,505.468658 
z"/>
<path fill="#000000" opacity="1.000000" stroke="none" 
	d="
M1025.000000,204.531342 
	C1023.229248,203.706497 1023.316162,201.475830 1022.395508,199.741547 
	C1017.215088,189.982529 1006.315552,188.018280 998.456665,195.658188 
	C992.722656,201.232468 987.199341,207.023438 981.468079,212.600647 
	C966.971863,226.707306 950.191895,235.334991 929.344238,234.409790 
	C907.410034,233.436386 886.339539,236.875946 866.641418,247.121902 
	C856.693909,252.296082 848.074097,259.271698 839.634583,266.518311 
	C838.760864,267.268555 838.102234,268.296478 836.687256,268.507477 
	C835.037292,267.746552 834.931641,266.098541 834.551697,264.501312 
	C830.482483,247.394196 822.385376,232.695923 808.915466,221.085388 
	C798.813354,212.377747 786.972961,206.751999 774.996094,201.343948 
	C762.295898,195.609314 750.449768,188.747665 742.092773,177.160828 
	C736.972046,170.060928 734.071350,161.936005 731.727539,153.604004 
	C730.109436,147.851974 728.400146,142.130600 725.863098,136.716400 
	C723.771729,132.253326 720.774536,129.378448 715.183716,129.211365 
	C709.197449,129.032486 705.935669,132.218155 703.288574,136.652420 
	C691.857788,155.801407 685.213135,176.735016 683.637146,198.761566 
	C681.362183,230.557617 684.799988,261.703674 698.148682,291.310120 
	C711.671936,321.303589 733.064575,344.334595 759.540649,363.096924 
	C767.369629,368.644928 768.789551,371.648773 765.989441,380.716400 
	C762.613403,391.649139 759.031921,402.520355 755.398193,413.370972 
	C752.963684,420.640656 748.944885,422.377594 742.097656,419.455688 
	C719.635437,409.870483 699.145081,397.168549 680.854675,380.935638 
	C661.031494,363.342438 643.199707,343.729218 624.229614,325.270935 
	C615.153687,316.439880 606.470825,307.199677 597.280273,298.492798 
	C577.110657,279.384827 555.575500,261.961273 532.071045,247.065842 
	C514.856384,236.156433 506.463379,215.934189 512.598511,198.549164 
	C517.535583,184.559174 527.956604,175.138275 540.382568,167.705566 
	C540.952637,167.364609 541.590454,167.137100 542.160828,166.796631 
	C544.954285,165.128952 548.770935,164.114761 548.501648,159.951523 
	C548.227539,155.714035 544.682678,153.820129 541.316895,152.448181 
	C529.046265,147.446426 516.077087,146.756622 503.108551,147.533966 
	C488.204681,148.427277 473.516541,151.058975 459.062195,154.914719 
	C438.505280,160.398361 418.700867,168.066589 398.791229,175.444000 
	C393.043030,177.573975 387.115295,179.222778 381.382782,181.390656 
	C376.509430,183.233612 371.822754,181.726852 367.149872,181.005280 
	C352.402466,178.727982 337.620361,177.129608 322.710144,176.176315 
	C311.732178,175.474426 300.769714,175.056137 289.828278,175.448257 
	C248.791733,176.918976 208.571823,182.876266 170.746948,199.874283 
	C150.092636,209.156067 130.714035,220.599472 113.030502,234.990234 
	C83.787582,258.787903 60.316322,287.395630 41.650818,319.896759 
	C24.348948,350.023529 12.614184,382.358978 6.321016,416.612183 
	C4.257395,427.844269 3.070768,439.180634 1.344112,450.748779 
	C1.000000,338.312439 1.000000,225.624878 1.342448,112.573479 
	C6.644904,112.826859 11.481845,110.768196 16.534933,111.826866 
	C23.079758,113.198074 29.523647,112.432465 35.307369,108.823387 
	C41.539257,104.934654 47.963470,104.534988 54.952995,106.446938 
	C70.585579,110.723137 83.083633,103.589615 92.865135,93.019249 
	C102.779327,82.305496 113.264915,73.491684 126.779503,67.658806 
	C142.043350,61.070953 157.560211,54.954327 172.221024,46.983326 
	C175.408752,45.250175 178.319336,42.952873 182.003479,42.081165 
	C194.522430,39.119038 207.165298,37.305489 220.046906,36.906281 
	C239.245560,36.311310 258.156067,33.409569 276.843048,29.036194 
	C280.573242,28.163202 284.165833,26.905205 287.580292,25.052893 
	C293.614624,21.779299 300.622681,21.320290 306.786865,17.625170 
	C310.843811,15.193237 317.151245,16.797249 322.184662,17.286936 
	C323.626556,18.815416 320.500031,19.111694 321.733795,20.332310 
	C337.020966,23.716349 352.297302,20.682827 367.548889,20.713564 
	C368.462433,20.715406 370.163788,20.068249 370.171814,19.694529 
	C370.269287,15.167178 374.460236,15.064811 376.995178,13.542273 
	C384.588715,8.981440 398.934174,10.319282 405.322266,15.806019 
	C405.644775,16.083015 405.709076,16.660574 405.944214,17.218212 
	C405.415680,17.699461 404.957794,18.166914 404.447723,18.568010 
	C403.814606,19.065870 402.927094,19.354813 403.119293,20.534994 
	C403.416962,20.812344 403.721252,21.261797 404.144012,21.466036 
	C434.306305,36.038170 464.198364,33.227837 493.833740,19.857168 
	C496.969452,18.442427 498.623108,15.923132 496.288727,12.128465 
	C494.757477,9.639326 493.418732,6.837914 494.771179,3.622054 
	C495.391815,2.146295 493.789581,1.751197 493.000000,1.000000 
	C508.020905,1.000000 523.041809,1.000000 538.318604,1.173640 
	C537.559875,2.001249 536.433105,2.700604 537.564697,4.055634 
	C539.234985,6.055734 538.428406,8.179816 537.996704,10.257841 
	C536.569153,17.129564 537.470398,19.075211 544.435730,20.467861 
	C566.024475,24.784302 587.505676,28.233004 609.765442,23.628132 
	C625.672913,20.337366 642.067993,18.872591 658.418518,21.159872 
	C665.404602,22.137148 672.384949,22.023754 679.363831,21.756193 
	C685.136780,21.534866 686.754944,19.627602 685.657288,14.217137 
	C684.833435,10.156219 685.744202,6.905588 688.692993,4.308019 
	C690.768738,2.479533 689.072693,1.916176 688.000000,1.000000 
	C742.354248,1.000000 796.708435,1.000000 851.225647,1.169916 
	C849.739990,1.770822 848.091370,2.201811 845.999695,2.748618 
	C847.816711,3.870491 849.375549,4.379562 850.255005,5.447841 
	C857.155640,13.829831 865.594360,20.488825 874.140259,27.024710 
	C878.728516,30.533844 883.339478,34.533745 884.739746,39.989796 
	C887.566284,51.003468 894.630310,59.122757 901.469910,67.453392 
	C905.008789,71.763611 908.203918,77.029457 914.089661,78.365822 
	C928.803040,81.706520 941.961060,77.336472 952.575317,67.411308 
	C958.645447,61.735279 964.738708,56.156292 971.088196,50.791733 
	C977.234070,45.599167 982.564331,39.516201 984.491699,31.399979 
	C985.380737,27.656219 986.794434,24.100702 987.725098,20.425938 
	C989.426086,13.709576 989.389343,6.982658 985.000000,1.000000 
	C998.309387,1.000000 1011.618713,1.000000 1025.000000,1.000000 
	C1025.000000,68.687546 1025.000000,136.375107 1025.000000,204.531342 
z"/>
<path fill="#000000" opacity="1.000000" stroke="none" 
	d="
M134.426208,635.407959 
	C127.266777,623.602234 120.608490,611.934998 114.584213,599.904785 
	C96.732735,564.256409 83.668556,526.928650 76.012794,487.819855 
	C72.579910,470.283264 70.140892,452.549072 69.538643,434.604492 
	C69.344925,428.832153 68.424629,423.202850 69.347664,417.305542 
	C70.538551,409.696991 75.318314,405.833984 81.752785,403.877869 
	C92.563675,400.591248 103.849411,399.430115 115.067436,398.749542 
	C139.960464,397.239380 164.327789,401.252228 188.481461,406.847534 
	C220.642136,414.297668 251.457077,425.474884 280.798187,440.592682 
	C306.676544,453.926300 330.806427,469.913910 353.491669,488.216492 
	C365.008423,497.508270 375.845276,507.538544 386.529419,517.664185 
	C396.973999,527.562805 406.389679,538.633545 415.579742,549.749634 
	C430.579163,567.892700 444.254822,587.063782 457.537109,606.497803 
	C469.899841,624.586365 481.884003,642.938965 494.497528,660.849548 
	C509.961060,682.807007 526.108948,704.233826 544.260559,724.132690 
	C554.479675,735.335449 564.942505,746.318848 576.061279,756.533447 
	C589.842346,769.193787 604.118896,781.414246 619.928345,791.627686 
	C621.015076,792.329712 622.361084,792.818787 623.028381,794.745850 
	C620.341125,795.274841 617.734497,796.097412 615.087036,796.261902 
	C584.078735,798.188416 553.443359,796.751953 524.061218,785.287415 
	C511.277527,780.299438 499.946838,772.818909 489.258453,764.294800 
	C470.445770,749.291504 451.065643,735.057556 431.394867,721.194214 
	C412.365723,707.783142 393.066345,694.862671 372.128204,684.576172 
	C364.358459,680.759033 356.279938,677.830566 347.647552,676.584717 
	C339.154297,675.359070 332.701263,680.948792 332.312592,689.542786 
	C331.564362,706.088196 338.004974,720.292419 346.178894,734.033020 
	C348.965576,738.717468 352.608124,742.949585 354.094025,748.355896 
	C355.565125,753.708374 354.771942,758.464905 350.572296,762.441589 
	C344.573761,768.121521 337.458038,771.433228 329.302338,772.317993 
	C302.779297,775.195312 278.819122,767.238281 256.419891,754.039673 
	C237.811340,743.074585 220.461456,730.170044 204.144333,716.034058 
	C177.131012,692.631714 153.693436,666.040283 134.426208,635.407959 
z"/>
<path fill="#000000" opacity="1.000000" stroke="none" 
	d="
M632.610229,467.446960 
	C639.973938,476.637115 647.660583,485.105652 653.924866,494.705139 
	C663.257263,509.006256 672.917053,523.067383 679.563171,538.970459 
	C684.687256,551.231689 680.188110,557.952209 668.885498,562.661499 
	C661.651978,565.675415 654.273499,568.172058 646.527222,568.982849 
	C638.146667,569.859985 629.935059,568.011169 622.356445,564.548523 
	C611.298279,559.496033 602.210388,551.621643 594.764954,542.123596 
	C585.738037,530.607971 586.121399,516.925598 588.321716,503.620636 
	C590.365479,491.261993 590.296509,480.183533 580.118469,471.197784 
	C571.950500,463.986603 562.228455,461.464020 551.648621,461.349121 
	C545.106812,461.278076 539.168762,459.734467 534.639465,454.608398 
	C531.714600,451.298248 530.987427,447.890137 533.181763,443.700653 
	C538.458435,433.626282 547.430908,429.398224 557.960571,428.808380 
	C577.767334,427.698914 595.147156,434.598053 610.250061,447.120422 
	C617.904602,453.467102 625.019897,460.464081 632.610229,467.446960 
z"/>
<path fill="#000000" opacity="1.000000" stroke="none" 
	d="
M537.728516,494.003174 
	C539.128235,483.132172 548.763794,480.079895 555.146057,482.248108 
	C561.164978,484.292908 563.693115,488.601532 563.335449,495.931854 
	C563.080261,501.162323 558.380920,505.963287 552.356262,507.148438 
	C548.125732,507.980621 542.086365,504.661621 539.717834,499.995300 
	C538.830444,498.247070 538.378052,496.278076 537.728516,494.003174 
z"/>
</svg>